<svg width="48" height="48" viewBox="0 0 48 48" fill="none" xmlns="http://www.w3.org/2000/svg">
<path d="M42.2334 0C45.1717 2.7735e-05 47.5534 2.38209 47.5537 5.32031V42.6895C47.5537 45.6279 45.1718 48.0097 42.2334 48.0098H40.7959C38.3319 48.0097 36.2593 46.335 35.6543 44.0615C32.6069 46.5299 28.7262 48.0098 24.499 48.0098C17.2689 48.0098 11.0496 43.6841 8.28711 37.4795C3.30818 36.289 0.000235641 34.1881 0 31.792C0 29.5766 2.82706 27.6115 7.18848 26.3867C8.96012 18.4593 16.0375 12.5342 24.499 12.5342C28.6433 12.5342 32.456 13.9552 35.4756 16.3369V5.32031C35.4758 2.38211 37.8576 6.05222e-05 40.7959 0H42.2334Z" fill="currentColor"/>
</svg>
